<?xml version="1.0" encoding="utf-8"?>
<!-- Generator: Adobe Illustrator 19.0.0, SVG Export Plug-In . SVG Version: 6.00 Build 0)  -->
<svg version="1.1" id="Слой_1" xmlns="http://www.w3.org/2000/svg" xmlns:xlink="http://www.w3.org/1999/xlink" x="0px" y="0px"
	 viewBox="0 0 211.1 99" style="enable-background:new 0 0 211.1 99;" xml:space="preserve">
<style type="text/css">
	.st0{fill-rule:evenodd;clip-rule:evenodd;fill:#273183;}
	.st1{fill:#262281;}
	.st2{fill:#FCFCFC;}
	.st3{fill:#FFFFFF;}
	.st4{fill:#2B4C81;}
	.st5{fill:#4F89C8;}
	.st6{fill:#64B1B3;}
	.st7{fill:#98C9AD;}
</style>
<g>
	<g id="Эллипс_3">
		<g id="XMLID_17_">
			<circle id="XMLID_18_" class="st0" cx="128.1" cy="49.5" r="49.5"/>
		</g>
	</g>
	<g>
		<g>
			<path class="st1" d="M61.9,32.7h-2.5V17h8.9v2.2h-6.3v4.9h5.9v2.2h-5.9V32.7z"/>
			<path class="st1" d="M78.1,32.7l-0.5-1.7h-0.1c-0.6,0.7-1.1,1.2-1.7,1.5S74.5,33,73.6,33c-1.2,0-2.1-0.3-2.7-0.9
				c-0.7-0.6-1-1.5-1-2.7c0-1.2,0.5-2.1,1.4-2.8c0.9-0.6,2.3-1,4.2-1l2.1-0.1v-0.6c0-0.8-0.2-1.3-0.5-1.7s-0.9-0.6-1.6-0.6
				c-0.6,0-1.2,0.1-1.8,0.3c-0.6,0.2-1.1,0.4-1.6,0.6l-0.8-1.8c0.6-0.3,1.3-0.6,2.1-0.8c0.8-0.2,1.5-0.3,2.2-0.3
				c1.5,0,2.7,0.3,3.4,1c0.8,0.7,1.2,1.7,1.2,3.1v8H78.1z M74.4,31c0.9,0,1.7-0.3,2.2-0.8c0.6-0.5,0.8-1.2,0.8-2.2v-1l-1.5,0.1
				c-1.2,0-2.1,0.2-2.6,0.6c-0.5,0.4-0.8,0.9-0.8,1.6c0,0.5,0.2,0.9,0.5,1.2C73.3,30.9,73.8,31,74.4,31z"/>
			<path class="st2" d="M95,20.7c0.5,0,0.9,0,1.3,0.1L96,23.1C95.6,23,95.3,23,94.9,23c-1,0-1.8,0.3-2.5,1c-0.6,0.7-0.9,1.5-0.9,2.6
				v6.2H89V20.9h2l0.3,2.1h0.1c0.4-0.7,0.9-1.3,1.5-1.7C93.6,20.9,94.3,20.7,95,20.7z"/>
			<path class="st2" d="M108.4,32.7h-2.5v-7.3c0-0.9-0.2-1.6-0.5-2c-0.3-0.4-0.9-0.7-1.6-0.7c-1,0-1.7,0.3-2.1,1
				c-0.5,0.6-0.7,1.7-0.7,3.2v5.9h-2.5V20.9h2l0.4,1.6h0.1c0.3-0.6,0.8-1,1.4-1.3c0.6-0.3,1.3-0.5,2.1-0.5c1.8,0,3,0.6,3.6,1.9h0.2
				c0.4-0.6,0.8-1,1.5-1.4c0.6-0.3,1.4-0.5,2.2-0.5c1.4,0,2.5,0.4,3.1,1.1c0.6,0.7,1,1.8,1,3.3v7.7h-2.5v-7.3c0-0.9-0.2-1.6-0.5-2
				c-0.3-0.4-0.9-0.7-1.6-0.7c-1,0-1.7,0.3-2.2,0.9c-0.5,0.6-0.7,1.6-0.7,2.8V32.7z"/>
		</g>
		<g>
			<path class="st1" d="M53.4,68h5.8v7.9c-0.9,0.3-1.9,0.5-2.7,0.7s-1.8,0.2-2.8,0.2c-2.4,0-4.2-0.7-5.5-2.1c-1.3-1.4-1.9-3.4-1.9-6
				c0-2.5,0.7-4.5,2.2-5.9c1.5-1.4,3.5-2.1,6-2.1c1.6,0,3.2,0.3,4.7,0.9l-0.9,2.1c-1.3-0.6-2.5-0.9-3.8-0.9c-1.7,0-3,0.5-4,1.6
				c-1,1.1-1.5,2.5-1.5,4.3c0,1.9,0.4,3.4,1.3,4.4c0.9,1,2.1,1.5,3.8,1.5c0.8,0,1.7-0.1,2.7-0.3v-4h-3.3V68z"/>
			<path class="st1" d="M68.6,64.4c0.5,0,0.9,0,1.3,0.1l-0.2,2.4c-0.4-0.1-0.7-0.1-1.1-0.1c-1,0-1.8,0.3-2.5,1
				c-0.6,0.7-0.9,1.5-0.9,2.6v6.2h-2.5V64.6h2l0.3,2.1H65c0.4-0.7,0.9-1.3,1.5-1.7S67.9,64.4,68.6,64.4z"/>
			<path class="st1" d="M82.5,70.6c0,1.9-0.5,3.5-1.5,4.5c-1,1.1-2.4,1.6-4.2,1.6c-1.1,0-2.1-0.3-2.9-0.8c-0.9-0.5-1.5-1.2-2-2.2
				c-0.5-0.9-0.7-2-0.7-3.3c0-1.9,0.5-3.4,1.5-4.5s2.4-1.6,4.2-1.6c1.7,0,3.1,0.6,4.1,1.7C82,67.2,82.5,68.7,82.5,70.6z M73.8,70.6
				c0,2.7,1,4.1,3,4.1c2,0,3-1.4,3-4.1c0-2.7-1-4.1-3-4.1c-1.1,0-1.8,0.4-2.3,1.1C74.1,68.2,73.8,69.3,73.8,70.6z"/>
			<path class="st2" d="M99.2,76.5L98.9,75h-0.1c-0.4,0.6-0.9,1-1.5,1.3c-0.6,0.3-1.4,0.5-2.2,0.5c-1.4,0-2.5-0.4-3.2-1.1
				s-1.1-1.8-1.1-3.3v-7.8h2.5V72c0,0.9,0.2,1.6,0.6,2c0.4,0.5,1,0.7,1.8,0.7c1.1,0,1.8-0.3,2.3-1c0.5-0.6,0.7-1.7,0.7-3.2v-5.9h2.5
				v11.9H99.2z"/>
			<path class="st2" d="M110.7,76.7c-1.5,0-2.7-0.5-3.5-1.6h-0.2c0.1,1,0.2,1.6,0.2,1.8v4.9h-2.5V64.6h2c0.1,0.2,0.2,0.8,0.4,1.6
				h0.1c0.8-1.2,2-1.8,3.5-1.8c1.5,0,2.6,0.5,3.5,1.6s1.2,2.6,1.2,4.5c0,1.9-0.4,3.5-1.3,4.5C113.4,76.2,112.2,76.7,110.7,76.7z
				 M110.1,66.5c-1,0-1.7,0.3-2.2,0.9s-0.7,1.5-0.7,2.8v0.4c0,1.4,0.2,2.5,0.7,3.1c0.5,0.6,1.2,1,2.2,1c0.9,0,1.5-0.4,2-1.1
				s0.7-1.7,0.7-3.1c0-1.3-0.2-2.3-0.7-3C111.7,66.8,111,66.5,110.1,66.5z"/>
		</g>
		<g>
			<path class="st1" d="M7.5,40.6c-1.5,0-2.6,0.5-3.5,1.6c-0.8,1-1.3,2.5-1.3,4.3c0,1.9,0.4,3.4,1.2,4.4c0.8,1,2,1.5,3.5,1.5
				c0.7,0,1.3-0.1,1.9-0.2c0.6-0.1,1.3-0.3,1.9-0.5v2.2c-1.2,0.5-2.6,0.7-4.2,0.7c-2.3,0-4.1-0.7-5.3-2.1c-1.2-1.4-1.8-3.4-1.8-6
				c0-1.6,0.3-3.1,0.9-4.3C1.5,41,2.4,40,3.5,39.4c1.1-0.7,2.5-1,4-1c1.6,0,3.1,0.3,4.4,1L11,41.6c-0.5-0.3-1.1-0.5-1.7-0.7
				C8.7,40.7,8.1,40.6,7.5,40.6z"/>
			<path class="st1" d="M24.9,48.4c0,1.9-0.5,3.5-1.5,4.5c-1,1.1-2.4,1.6-4.2,1.6c-1.1,0-2.1-0.3-2.9-0.8c-0.9-0.5-1.5-1.2-2-2.2
				c-0.5-0.9-0.7-2-0.7-3.3c0-1.9,0.5-3.4,1.5-4.5c1-1.1,2.4-1.6,4.2-1.6c1.7,0,3.1,0.6,4.1,1.7C24.4,45,24.9,46.5,24.9,48.4z
				 M16.2,48.4c0,2.7,1,4.1,3,4.1c2,0,3-1.4,3-4.1c0-2.7-1-4.1-3-4.1c-1.1,0-1.8,0.4-2.3,1.1C16.5,46.1,16.2,47.1,16.2,48.4z"/>
			<path class="st1" d="M38.1,54.3h-2.5V47c0-0.9-0.2-1.6-0.6-2.1c-0.4-0.5-1-0.7-1.8-0.7c-1.1,0-1.8,0.3-2.3,0.9
				c-0.5,0.6-0.7,1.7-0.7,3.2v5.9h-2.5V42.5h2L30,44h0.1c0.4-0.6,0.9-1,1.5-1.3c0.7-0.3,1.4-0.5,2.2-0.5c2.9,0,4.3,1.5,4.3,4.4V54.3
				z"/>
			<path class="st1" d="M49.5,51c0,1.2-0.4,2-1.3,2.7c-0.8,0.6-2.1,0.9-3.6,0.9c-1.6,0-2.9-0.2-3.8-0.7v-2.2c1.4,0.6,2.7,1,3.9,1
				c1.6,0,2.3-0.5,2.3-1.4c0-0.3-0.1-0.6-0.3-0.8s-0.5-0.4-0.8-0.6s-0.9-0.5-1.6-0.7c-1.4-0.5-2.3-1.1-2.8-1.6
				c-0.5-0.5-0.7-1.2-0.7-2.1c0-1,0.4-1.8,1.2-2.4c0.8-0.6,1.9-0.8,3.3-0.8c1.4,0,2.7,0.3,4,0.8L48.5,45c-1.3-0.5-2.4-0.8-3.2-0.8
				c-1.3,0-2,0.4-2,1.1c0,0.4,0.2,0.7,0.5,0.9s1.1,0.6,2.3,1.1c1,0.4,1.7,0.7,2.1,1c0.4,0.3,0.8,0.7,1,1.1
				C49.4,49.9,49.5,50.4,49.5,51z"/>
			<path class="st1" d="M59.6,54.3l-0.5-1.7H59c-0.6,0.7-1.1,1.2-1.7,1.5c-0.6,0.3-1.3,0.4-2.2,0.4c-1.2,0-2.1-0.3-2.7-0.9
				s-1-1.5-1-2.7c0-1.2,0.5-2.1,1.4-2.8c0.9-0.6,2.3-1,4.2-1l2.1-0.1v-0.6c0-0.8-0.2-1.3-0.5-1.7s-0.9-0.6-1.6-0.6
				c-0.6,0-1.2,0.1-1.8,0.3c-0.6,0.2-1.1,0.4-1.6,0.6l-0.8-1.8c0.6-0.3,1.3-0.6,2.1-0.8c0.8-0.2,1.5-0.3,2.2-0.3
				c1.5,0,2.7,0.3,3.4,1c0.8,0.7,1.2,1.7,1.2,3.1v8H59.6z M55.8,52.6c0.9,0,1.7-0.3,2.2-0.8c0.6-0.5,0.8-1.2,0.8-2.2v-1l-1.5,0.1
				c-1.2,0-2.1,0.2-2.6,0.6c-0.5,0.4-0.8,0.9-0.8,1.6c0,0.5,0.2,0.9,0.5,1.2C54.7,52.5,55.2,52.6,55.8,52.6z"/>
			<path class="st1" d="M67.3,54.3h-2.5V37.6h2.5V54.3z"/>
			<path class="st1" d="M75.2,52.5c0.6,0,1.2-0.1,1.8-0.3v1.9c-0.3,0.1-0.6,0.2-1.1,0.3c-0.4,0.1-0.9,0.1-1.4,0.1
				c-2.4,0-3.6-1.3-3.6-3.8v-6.4h-1.6v-1.1l1.7-0.9l0.9-2.5h1.6v2.6H77v1.9h-3.4v6.4c0,0.6,0.2,1.1,0.5,1.3
				C74.3,52.4,74.7,52.5,75.2,52.5z"/>
			<path class="st2" d="M84.8,39.3c0-0.5,0.1-0.8,0.4-1c0.2-0.2,0.6-0.4,1.1-0.4c0.4,0,0.8,0.1,1,0.4c0.2,0.2,0.4,0.6,0.4,1
				c0,0.4-0.1,0.8-0.4,1s-0.6,0.4-1,0.4c-0.5,0-0.8-0.1-1.1-0.4S84.8,39.7,84.8,39.3z M87.5,54.3h-2.5V42.5h2.5V54.3z"/>
			<path class="st2" d="M101.4,54.3h-2.5V47c0-0.9-0.2-1.6-0.6-2.1c-0.4-0.5-1-0.7-1.8-0.7c-1.1,0-1.8,0.3-2.3,0.9
				c-0.5,0.6-0.7,1.7-0.7,3.2v5.9H91V42.5h2l0.4,1.6h0.1c0.4-0.6,0.9-1,1.5-1.3c0.7-0.3,1.4-0.5,2.2-0.5c2.9,0,4.3,1.5,4.3,4.4V54.3
				z"/>
			<path class="st2" d="M114.9,42.5v1.4l-2,0.4c0.2,0.3,0.3,0.6,0.5,0.9s0.2,0.8,0.2,1.2c0,1.2-0.4,2.2-1.3,2.9
				c-0.8,0.7-2,1.1-3.5,1.1c-0.4,0-0.7,0-1-0.1c-0.5,0.3-0.8,0.7-0.8,1.2c0,0.3,0.1,0.5,0.4,0.6c0.3,0.1,0.7,0.2,1.4,0.2h2.1
				c1.3,0,2.3,0.3,3,0.8s1,1.4,1,2.4c0,1.3-0.6,2.4-1.7,3.1s-2.7,1.1-4.8,1.1c-1.6,0-2.9-0.3-3.7-0.9s-1.3-1.4-1.3-2.4
				c0-0.7,0.2-1.3,0.7-1.8c0.5-0.5,1.1-0.8,1.9-1c-0.3-0.1-0.6-0.4-0.8-0.7c-0.2-0.3-0.3-0.7-0.3-1c0-0.4,0.1-0.8,0.4-1.1
				s0.6-0.6,1.1-0.9c-0.6-0.3-1.1-0.7-1.5-1.3c-0.4-0.6-0.6-1.3-0.6-2.1c0-1.3,0.4-2.3,1.2-3s2-1.1,3.5-1.1c0.3,0,0.7,0,1.1,0.1
				c0.4,0,0.6,0.1,0.8,0.1H114.9z M105.5,56.2c0,0.5,0.2,1,0.7,1.3s1.2,0.4,2.1,0.4c1.4,0,2.4-0.2,3.1-0.6s1-0.9,1-1.6
				c0-0.5-0.2-0.9-0.6-1.1c-0.4-0.2-1.1-0.3-2.1-0.3h-1.9c-0.7,0-1.3,0.2-1.7,0.5C105.7,55.1,105.5,55.6,105.5,56.2z M106.6,46.3
				c0,0.7,0.2,1.3,0.6,1.7c0.4,0.4,0.9,0.6,1.6,0.6c1.5,0,2.2-0.8,2.2-2.3c0-0.8-0.2-1.4-0.5-1.8c-0.4-0.4-0.9-0.6-1.6-0.6
				c-0.7,0-1.3,0.2-1.7,0.6C106.8,44.9,106.6,45.5,106.6,46.3z"/>
		</g>
		<g>
			<g id="XMLID_126_">
				<path id="XMLID_150_" class="st3" d="M187.7,28.4c0.6,0,1.1-0.2,1.5-0.6c0.4-0.4,0.6-1,0.6-1.5c0-0.6-0.2-1.1-0.6-1.5
					c-0.4-0.4-1-0.6-1.5-0.6c-0.6,0-1.1,0.2-1.5,0.6c-0.4,0.4-0.6,1-0.6,1.5c0,0.6,0.2,1.1,0.6,1.5
					C186.6,28.2,187.1,28.4,187.7,28.4z"/>
				<circle id="XMLID_149_" class="st3" cx="180.1" cy="26.3" r="2.1"/>
				<path id="XMLID_148_" class="st3" d="M172.4,24.1c-0.6,0-1.1,0.2-1.5,0.6c-0.4,0.4-0.6,1-0.6,1.5c0,0.6,0.2,1.1,0.6,1.5
					c0.4,0.4,1,0.6,1.5,0.6c0.6,0,1.1-0.2,1.5-0.6c0.4-0.4,0.6-1,0.6-1.5c0-0.6-0.2-1.1-0.6-1.5S173,24.1,172.4,24.1z"/>
				<circle id="XMLID_147_" class="st3" cx="163.6" cy="11.1" r="2.1"/>
				<path id="XMLID_146_" class="st3" d="M154.8,8.9c-0.6,0-1.1,0.2-1.5,0.6c-0.4,0.4-0.6,1-0.6,1.5c0,0.6,0.2,1.1,0.6,1.5
					c0.4,0.4,1,0.6,1.5,0.6c0.6,0,1.1-0.2,1.5-0.6c0.4-0.4,0.6-1,0.6-1.5c0-0.6-0.2-1.1-0.6-1.5C155.9,9.1,155.3,8.9,154.8,8.9z"/>
				<circle id="XMLID_145_" class="st3" cx="154.7" cy="18.7" r="2.1"/>
				<path id="XMLID_144_" class="st3" d="M154.8,24.1c-0.6,0-1.1,0.2-1.5,0.6s-0.6,1-0.6,1.5c0,0.6,0.2,1.1,0.6,1.5
					c0.4,0.4,1,0.6,1.5,0.6c0.6,0,1.1-0.2,1.5-0.6c0.4-0.4,0.6-1,0.6-1.5c0-0.6-0.2-1.1-0.6-1.5C155.9,24.4,155.3,24.1,154.8,24.1z"
					/>
				<circle id="XMLID_143_" class="st3" cx="147.1" cy="26.3" r="2.1"/>
				<path id="XMLID_142_" class="st3" d="M139.6,24.1c-0.6,0-1.1,0.2-1.5,0.6s-0.6,1-0.6,1.5c0,0.6,0.2,1.1,0.6,1.5
					c0.4,0.4,1,0.6,1.5,0.6c0.6,0,1.1-0.2,1.5-0.6c0.4-0.4,0.6-1,0.6-1.5c0-0.6-0.2-1.1-0.6-1.5C140.7,24.4,140.2,24.1,139.6,24.1z"
					/>
				<circle id="XMLID_141_" class="st3" cx="139.6" cy="35.1" r="2.1"/>
				<path id="XMLID_140_" class="st3" d="M139.6,41.7c-0.6,0-1.1,0.2-1.5,0.6c-0.4,0.4-0.6,1-0.6,1.5c0,0.6,0.2,1.1,0.6,1.5
					c0.4,0.4,1,0.6,1.5,0.6c0.6,0,1.1-0.2,1.5-0.6c0.4-0.4,0.6-1,0.6-1.5c0-0.6-0.2-1.1-0.6-1.5C140.7,42,140.2,41.7,139.6,41.7z"/>
				<circle id="XMLID_139_" class="st3" cx="147.1" cy="43.9" r="2.1"/>
				<path id="XMLID_138_" class="st3" d="M154.8,41.7c-0.6,0-1.1,0.2-1.5,0.6c-0.4,0.4-0.6,1-0.6,1.5c0,0.6,0.2,1.1,0.6,1.5
					c0.4,0.4,1,0.6,1.5,0.6c0.6,0,1.1-0.2,1.5-0.6c0.4-0.4,0.6-1,0.6-1.5c0-0.6-0.2-1.1-0.6-1.5C155.9,42,155.3,41.7,154.8,41.7z"/>
				<circle id="XMLID_137_" class="st3" cx="154.7" cy="51.5" r="2.1"/>
				<path id="XMLID_136_" class="st3" d="M154.8,57c-0.6,0-1.1,0.2-1.5,0.6c-0.4,0.4-0.6,1-0.6,1.5c0,0.6,0.2,1.1,0.6,1.5
					c0.4,0.4,1,0.6,1.5,0.6c0.6,0,1.1-0.2,1.5-0.6c0.4-0.4,0.6-1,0.6-1.5c0-0.6-0.2-1.1-0.6-1.5C155.9,57.2,155.3,57,154.8,57z"/>
				<circle id="XMLID_135_" class="st3" cx="163.6" cy="59.2" r="2.1"/>
				<path id="XMLID_134_" class="st3" d="M172.4,41.7c-0.6,0-1.1,0.2-1.5,0.6c-0.4,0.4-0.6,1-0.6,1.5c0,0.6,0.2,1.1,0.6,1.5
					c0.4,0.4,1,0.6,1.5,0.6c0.6,0,1.1-0.2,1.5-0.6c0.4-0.4,0.6-1,0.6-1.5c0-0.6-0.2-1.1-0.6-1.5C173.6,42,173,41.7,172.4,41.7z"/>
				<circle id="XMLID_133_" class="st3" cx="180.1" cy="43.9" r="2.1"/>
				<path id="XMLID_132_" class="st3" d="M187.7,41.7c-0.6,0-1.1,0.2-1.5,0.6c-0.4,0.4-0.6,1-0.6,1.5c0,0.6,0.2,1.1,0.6,1.5
					c0.4,0.4,1,0.6,1.5,0.6c0.6,0,1.1-0.2,1.5-0.6c0.4-0.4,0.6-1,0.6-1.5c0-0.6-0.2-1.1-0.6-1.5C188.8,42,188.3,41.7,187.7,41.7z"/>
				<circle id="XMLID_131_" class="st3" cx="187.6" cy="35.1" r="2.1"/>
				<circle id="XMLID_130_" class="st3" cx="172.4" cy="18.7" r="2.1"/>
				<path id="XMLID_129_" class="st3" d="M172.4,8.9c-0.6,0-1.1,0.2-1.5,0.6c-0.4,0.4-0.6,1-0.6,1.5c0,0.6,0.2,1.1,0.6,1.5
					c0.4,0.4,1,0.6,1.5,0.6c0.6,0,1.1-0.2,1.5-0.6c0.4-0.4,0.6-1,0.6-1.5c0-0.6-0.2-1.1-0.6-1.5C173.6,9.1,173,8.9,172.4,8.9z"/>
				<path id="XMLID_128_" class="st3" d="M172.4,57c-0.6,0-1.1,0.2-1.5,0.6c-0.4,0.4-0.6,1-0.6,1.5c0,0.6,0.2,1.1,0.6,1.5
					c0.4,0.4,1,0.6,1.5,0.6c0.6,0,1.1-0.2,1.5-0.6c0.4-0.4,0.6-1,0.6-1.5c0-0.6-0.2-1.1-0.6-1.5C173.6,57.2,173,57,172.4,57z"/>
				<circle id="XMLID_127_" class="st3" cx="172.4" cy="51.5" r="2.1"/>
			</g>
			<path id="XMLID_100_" class="st4" d="M187.5,28.5c0.6,0,1.1-0.2,1.5-0.6c0.4-0.4,0.6-1,0.6-1.5c0-0.6-0.2-1.1-0.6-1.5
				c-0.4-0.4-1-0.6-1.5-0.6c-0.6,0-1.1,0.2-1.5,0.6c-0.4,0.4-0.6,1-0.6,1.5c0,0.6,0.2,1.1,0.6,1.5C186.4,28.3,187,28.5,187.5,28.5z"
				/>
			<circle id="XMLID_99_" class="st4" cx="179.9" cy="26.4" r="2.1"/>
			<path id="XMLID_98_" class="st4" d="M172.3,24.2c-0.6,0-1.1,0.2-1.5,0.6c-0.4,0.4-0.6,1-0.6,1.5c0,0.6,0.2,1.1,0.6,1.5
				c0.4,0.4,1,0.6,1.5,0.6c0.6,0,1.1-0.2,1.5-0.6c0.4-0.4,0.6-1,0.6-1.5c0-0.6-0.2-1.1-0.6-1.5C173.4,24.4,172.9,24.2,172.3,24.2z"
				/>
			<circle id="XMLID_97_" class="st4" cx="163.4" cy="11.2" r="2.1"/>
			<circle id="XMLID_83_" class="st4" cx="179.9" cy="44" r="2.1"/>
			<path id="XMLID_82_" class="st4" d="M187.5,41.8c-0.6,0-1.1,0.2-1.5,0.6c-0.4,0.4-0.6,1-0.6,1.5c0,0.6,0.2,1.1,0.6,1.5
				c0.4,0.4,1,0.6,1.5,0.6c0.6,0,1.1-0.2,1.5-0.6c0.4-0.4,0.6-1,0.6-1.5c0-0.6-0.2-1.1-0.6-1.5C188.7,42,188.1,41.8,187.5,41.8z"/>
			<circle id="XMLID_81_" class="st4" cx="187.5" cy="35.2" r="2.1"/>
			<circle id="XMLID_80_" class="st4" cx="172.2" cy="18.7" r="2.1"/>
			<path id="XMLID_79_" class="st4" d="M172.3,9c-0.6,0-1.1,0.2-1.5,0.6c-0.4,0.4-0.6,1-0.6,1.5c0,0.6,0.2,1.1,0.6,1.5
				c0.4,0.4,1,0.6,1.5,0.6c0.6,0,1.1-0.2,1.5-0.6c0.4-0.4,0.6-1,0.6-1.5c0-0.6-0.2-1.1-0.6-1.5C173.4,9.2,172.9,9,172.3,9z"/>
			<path id="XMLID_75_" class="st5" d="M195.1,28c-0.4,0-0.9-0.2-1.2-0.5c-0.3-0.3-0.5-0.7-0.5-1.2c0-0.4,0.2-0.9,0.5-1.2
				c0.3-0.3,0.7-0.5,1.2-0.5c0.4,0,0.9,0.2,1.2,0.5c0.3,0.3,0.5,0.7,0.5,1.2c0,0.4-0.2,0.9-0.5,1.2C196,27.8,195.5,28,195.1,28z"/>
			<path id="XMLID_74_" class="st5" d="M195.1,45.6c-0.4,0-0.9-0.2-1.2-0.5c-0.3-0.3-0.5-0.7-0.5-1.2c0-0.4,0.2-0.9,0.5-1.2
				c0.3-0.3,0.7-0.5,1.2-0.5c0.4,0,0.9,0.2,1.2,0.5c0.3,0.3,0.5,0.7,0.5,1.2c0,0.4-0.2,0.9-0.5,1.2C196,45.4,195.5,45.6,195.1,45.6z
				"/>
			<circle id="XMLID_73_" class="st5" cx="195" cy="35.2" r="1.6"/>
			<circle id="XMLID_72_" class="st5" cx="179.8" cy="18.7" r="1.6"/>
			<path id="XMLID_71_" class="st5" d="M179.9,12.7c-0.4,0-0.9-0.2-1.2-0.5c-0.3-0.3-0.5-0.7-0.5-1.2c0-0.4,0.2-0.9,0.5-1.2
				c0.3-0.3,0.7-0.5,1.2-0.5c0.4,0,0.9,0.2,1.2,0.5c0.3,0.3,0.5,0.7,0.5,1.2c0,0.4-0.2,0.9-0.5,1.2
				C180.7,12.6,180.3,12.7,179.9,12.7z"/>
			<path id="XMLID_70_" class="st5" d="M179.9,60.8c-0.4,0-0.9-0.2-1.2-0.5c-0.3-0.3-0.5-0.7-0.5-1.2c0-0.4,0.2-0.9,0.5-1.2
				c0.3-0.3,0.7-0.5,1.2-0.5c0.4,0,0.9,0.2,1.2,0.5c0.3,0.3,0.5,0.7,0.5,1.2c0,0.4-0.2,0.9-0.5,1.2
				C180.7,60.6,180.3,60.8,179.9,60.8z"/>
			<circle id="XMLID_69_" class="st5" cx="179.8" cy="51.6" r="1.6"/>
			<path id="XMLID_67_" class="st6" d="M202.8,27.5c-0.3,0-0.6-0.1-0.8-0.3c-0.2-0.2-0.3-0.5-0.3-0.8c0-0.3,0.1-0.6,0.3-0.8
				c0.2-0.2,0.5-0.3,0.8-0.3c0.3,0,0.6,0.1,0.8,0.3c0.2,0.2,0.3,0.5,0.3,0.8c0,0.3-0.1,0.6-0.3,0.8
				C203.4,27.4,203.1,27.5,202.8,27.5z"/>
			<path id="XMLID_66_" class="st6" d="M202.8,45.1c-0.3,0-0.6-0.1-0.8-0.3c-0.2-0.2-0.3-0.5-0.3-0.8s0.1-0.6,0.3-0.8
				c0.2-0.2,0.5-0.3,0.8-0.3c0.3,0,0.6,0.1,0.8,0.3c0.2,0.2,0.3,0.5,0.3,0.8c0,0.3-0.1,0.6-0.3,0.8
				C203.4,44.9,203.1,45.1,202.8,45.1z"/>
			<circle id="XMLID_65_" class="st6" cx="202.7" cy="35.2" r="1.1"/>
			<circle id="XMLID_64_" class="st6" cx="187.5" cy="18.7" r="1.1"/>
			<path id="XMLID_63_" class="st6" d="M187.5,12.2c-0.3,0-0.6-0.1-0.8-0.3c-0.2-0.2-0.3-0.5-0.3-0.8c0-0.3,0.1-0.6,0.3-0.8
				c0.2-0.2,0.5-0.3,0.8-0.3c0.3,0,0.6,0.1,0.8,0.3c0.2,0.2,0.3,0.5,0.3,0.8c0,0.3-0.1,0.6-0.3,0.8
				C188.1,12.1,187.8,12.2,187.5,12.2z"/>
			<path id="XMLID_62_" class="st6" d="M187.5,60.3c-0.3,0-0.6-0.1-0.8-0.3c-0.2-0.2-0.3-0.5-0.3-0.8c0-0.3,0.1-0.6,0.3-0.8
				c0.2-0.2,0.5-0.3,0.8-0.3c0.3,0,0.6,0.1,0.8,0.3c0.2,0.2,0.3,0.5,0.3,0.8c0,0.3-0.1,0.6-0.3,0.8
				C188.1,60.2,187.8,60.3,187.5,60.3z"/>
			<circle id="XMLID_61_" class="st6" cx="187.5" cy="51.6" r="1.1"/>
			<path id="XMLID_59_" class="st7" d="M210.4,27c-0.2,0-0.3-0.1-0.4-0.2c-0.1-0.1-0.2-0.3-0.2-0.4s0.1-0.3,0.2-0.4
				c0.1-0.1,0.3-0.2,0.4-0.2c0.2,0,0.3,0.1,0.4,0.2c0.1,0.1,0.2,0.3,0.2,0.4c0,0.2-0.1,0.3-0.2,0.4C210.8,26.9,210.6,27,210.4,27z"
				/>
			<path id="XMLID_58_" class="st7" d="M210.4,44.6c-0.2,0-0.3-0.1-0.4-0.2c-0.1-0.1-0.2-0.3-0.2-0.4s0.1-0.3,0.2-0.4
				c0.1-0.1,0.3-0.2,0.4-0.2c0.2,0,0.3,0.1,0.4,0.2c0.1,0.1,0.2,0.3,0.2,0.4c0,0.2-0.1,0.3-0.2,0.4
				C210.8,44.5,210.6,44.6,210.4,44.6z"/>
			<circle id="XMLID_57_" class="st7" cx="210.4" cy="35.2" r="0.6"/>
			<circle id="XMLID_56_" class="st7" cx="195.2" cy="18.7" r="0.6"/>
			<path id="XMLID_55_" class="st7" d="M195.2,11.7c-0.2,0-0.3-0.1-0.4-0.2c-0.1-0.1-0.2-0.3-0.2-0.4c0-0.2,0.1-0.3,0.2-0.4
				c0.1-0.1,0.3-0.2,0.4-0.2c0.2,0,0.3,0.1,0.4,0.2c0.1,0.1,0.2,0.3,0.2,0.4c0,0.2-0.1,0.3-0.2,0.4
				C195.5,11.7,195.4,11.7,195.2,11.7z"/>
			<path id="XMLID_10_" class="st7" d="M195.2,59.8c-0.2,0-0.3-0.1-0.4-0.2c-0.1-0.1-0.2-0.3-0.2-0.4c0-0.2,0.1-0.3,0.2-0.4
				c0.1-0.1,0.3-0.2,0.4-0.2c0.2,0,0.3,0.1,0.4,0.2c0.1,0.1,0.2,0.3,0.2,0.4c0,0.2-0.1,0.3-0.2,0.4
				C195.5,59.7,195.4,59.8,195.2,59.8z"/>
			<circle id="XMLID_9_" class="st7" cx="195.2" cy="51.6" r="0.6"/>
		</g>
	</g>
</g>
</svg>
