<?xml version="1.0" encoding="utf-8"?>
<!-- Generator: Adobe Illustrator 21.0.0, SVG Export Plug-In . SVG Version: 6.00 Build 0)  -->
<svg version="1.1" id="Capa_1" xmlns="http://www.w3.org/2000/svg" xmlns:xlink="http://www.w3.org/1999/xlink" x="0px" y="0px"
	 viewBox="0 0 510 510" style="enable-background:new 0 0 510 510;" xml:space="preserve">
<style type="text/css">
	.st0{fill:#D9294B;}
</style>
<g>
	<g id="play-install">
		<path class="st0" d="M459,114.8H357v-51l-51-51H204l-51,51v51H51c-28,0-51,22.9-51,51v280.5c0,28,23,51,51,51h408
			c28,0,51-23,51-51V165.8C510,137.7,487,114.8,459,114.8z M204,63.8h102v51H204V63.8z M216.8,408l-89.3-89.3l35.7-35.7l53.6,53.5
			L349.4,204l35.7,35.7L216.8,408z"/>
	</g>
</g>
</svg>
