<?xml version="1.0" encoding="utf-8"?>
<!-- Generator: Adobe Illustrator 21.0.0, SVG Export Plug-In . SVG Version: 6.00 Build 0)  -->
<svg version="1.1" id="Layer_1" xmlns="http://www.w3.org/2000/svg" xmlns:xlink="http://www.w3.org/1999/xlink" x="0px" y="0px"
	 viewBox="0 0 481.9 481.9" style="enable-background:new 0 0 481.9 481.9;" xml:space="preserve">
<style type="text/css">
	.st0{fill:#D9294B;}
</style>
<g>
	<g>
		<path class="st0" d="M407.6,166.7c0-2-0.8-3.9-2.2-5.3L391,147l10.3-17.7c2-3.5,0.8-8.2-2.8-10.2l-17.7-10.3l5.4-19.6
			c1.1-4.1-1.3-8.2-5.3-9.3l-19.7-5.3l0-20.4c0-4.1-3.4-7.5-7.5-7.5l-20.4,0l-5.3-19.7c-0.5-1.9-1.8-3.5-3.5-4.5
			c-1.7-1.1-3.8-1.3-5.6-0.8L299,26.9L288.8,9.2c-1-1.7-2.6-3-4.5-3.5c-2-0.5-4-0.2-5.7,0.7l-17.7,10.2L246.4,2.2
			C245,0.8,243.1,0,241.1,0c-2,0-3.9,0.8-5.3,2.2l-14.5,14.4L203.7,6.4c-1.7-1-3.8-1.3-5.7-0.8c-2,0.5-3.6,1.8-4.6,3.5l-10.2,17.7
			l-19.7-5.3c-4-1.1-8.1,1.3-9.3,5.3l-5.3,19.7l-20.4,0c-4.1,0-7.5,3.4-7.5,7.5l0,20.4l-19.7,5.3c-1.9,0.5-3.5,1.8-4.5,3.5
			C95.7,85,95.4,87,96,89l5.3,19.7l-17.7,10.2c-1.7,1-3,2.6-3.5,4.6c-0.5,1.9-0.3,3.9,0.7,5.6L91,146.8l-14.4,14.4
			c-1.4,1.4-2.3,3.3-2.3,5.3c0,2,0.8,3.9,2.3,5.3l14.4,14.5l-10.2,17.6c-1.1,1.7-1.3,3.8-0.8,5.7c0.4,2,1.7,3.6,3.5,4.6l17.7,10.3
			l-5.3,19.6c-0.5,2-0.3,4,0.7,5.7c1,1.7,2.6,3,4.5,3.5l19.7,5.3l0,20.4c0,4.1,3.4,7.5,7.5,7.5l20.4,0l5.3,19.7
			c1.1,4,5.3,6.4,9.3,5.3l19.7-5.3l10.2,17.7c2.1,3.6,6.7,4.8,10.3,2.7l17.6-10.2l14.4,14.5c1.4,1.4,3.3,2.2,5.3,2.2
			c2,0,3.9-0.8,5.3-2.2l14.5-14.4l17.7,10.2c3.5,2.1,8.2,0.9,10.2-2.7l10.3-17.7l19.7,5.3c1.9,0.5,3.9,0.3,5.6-0.7
			c1.7-1,3-2.6,3.5-4.5l5.3-19.7l20.4,0c4.1,0,7.5-3.4,7.5-7.5l0-20.4l19.7-5.3c4-1.1,6.4-5.2,5.4-9.3l-5.3-19.7l17.7-10.2
			c3.6-2.1,4.8-6.7,2.8-10.3L391,186.5l14.5-14.4C406.9,170.7,407.6,168.8,407.6,166.7z M240.9,271.4c-57.7,0-104.7-47-104.6-104.8
			S183.3,61.9,241.1,62s104.7,47,104.6,104.8C345.6,224.5,298.6,271.4,240.9,271.4z"/>
	</g>
</g>
<g>
	<g>
		<path class="st0" d="M399.8,436.9l-58.2-124.7c-1.9,5.1-5.4,9.3-10,11.9c-3,1.9-7,3-11.1,3c-2,0-4.1-0.3-6.1-0.8l-8.4-2.2
			l-4.5,7.7c-3.9,6.9-11.4,11.3-19.5,11.2c-4,0-8-1.1-11.5-3.2l-7.5-4.3l-6.3,6.3c-1.6,1.6-3.6,2.9-5.6,4l61.5,131.8
			c1.2,2.6,3.7,4.2,6.5,4.4h0.3c2.7,0,5.2-1.4,6.6-3.8l21.9-38.5l43.6,7.9c2.8,0.5,5.6-0.6,7.3-2.8
			C400.7,442.5,401,439.5,399.8,436.9z"/>
	</g>
</g>
<g>
	<g>
		<path class="st0" d="M225.2,342.1l-6.6-6.6l-7.6,4.4c-3.4,2-7.4,3-11.3,3c-8,0-15.5-4.3-19.5-11.2l-4.5-7.8l-8.5,2.3
			c-1.8,0.5-3.8,0.8-5.9,0.8c-9.4,0-17.8-6-21.1-14.8L81.8,436.7c-1.2,2.6-0.8,5.6,0.8,7.8c1.7,2.2,4.5,3.3,7.3,2.8l43.7-7.8
			l21.9,38.5c1.3,2.4,3.8,3.8,6.5,3.8h0.3c2.8-0.1,5.3-1.8,6.5-4.4l61.7-131.7C228.6,344.8,226.8,343.6,225.2,342.1z"/>
	</g>
</g>
<g>
	<g>
		<path class="st0" d="M241.1,77c-49.4,0-89.7,40.2-89.7,89.6c0,49.4,40.1,89.7,89.6,89.7s89.7-40.2,89.7-89.6
			C330.7,117.3,290.5,77,241.1,77z"/>
	</g>
</g>
</svg>
